<?xml version="1.0" encoding="UTF-8" standalone="no"?>
<svg
   width="737.8"
   height="371"
   version="1.1"
   id="svg5"
   sodipodi:docname="SDL2.svg"
   inkscape:version="1.4.2 (ebf0e940d0, 2025-05-08)"
   xmlns:inkscape="http://www.inkscape.org/namespaces/inkscape"
   xmlns:sodipodi="http://sodipodi.sourceforge.net/DTD/sodipodi-0.dtd"
   xmlns="http://www.w3.org/2000/svg"
   xmlns:svg="http://www.w3.org/2000/svg"
   xmlns:rdf="http://www.w3.org/1999/02/22-rdf-syntax-ns#"
   xmlns:cc="http://creativecommons.org/ns#"
   xmlns:dc="http://purl.org/dc/elements/1.1/">
  <sodipodi:namedview
     id="namedview5"
     pagecolor="#ffffff"
     bordercolor="#000000"
     borderopacity="0.25"
     inkscape:showpageshadow="2"
     inkscape:pageopacity="0.0"
     inkscape:pagecheckerboard="0"
     inkscape:deskcolor="#d1d1d1"
     inkscape:zoom="0.89035268"
     inkscape:cx="490.81674"
     inkscape:cy="198.23605"
     inkscape:window-width="1874"
     inkscape:window-height="986"
     inkscape:window-x="0"
     inkscape:window-y="0"
     inkscape:window-maximized="1"
     inkscape:current-layer="g5" />
  <defs
     id="defs2">
    <radialGradient
       id="vlpa"
       cx="204.9"
       cy="-244"
       r="25.72"
       gradientTransform="matrix(-4.228 -8.251 14.01 -7.18 5688 455.1)"
       gradientUnits="userSpaceOnUse">
      <stop
         style="stop-color:#484848;stop-opacity:1;"
         offset="0"
         id="stop1" />
      <stop
         style="stop-color:#d3d4cf"
         offset="1"
         id="stop2" />
    </radialGradient>
  </defs>
  <title
     id="title2">Simple DirectMedia Layer</title>
  <metadata
     id="metadata2">
    <rdf:RDF>
      <cc:Work
         rdf:about="">
        <dc:format>image/svg+xml</dc:format>
        <dc:type
           rdf:resource="http://purl.org/dc/dcmitype/StillImage" />
        <dc:title />
      </cc:Work>
    </rdf:RDF>
  </metadata>
  <g
     transform="translate(-727.5 -270.6)"
     id="g5">
    <path
       d="m1071 641.2c-84.77-2.903-165.4-22.08-228.1-54.23-5.904-3.03-18.79-10.2-18.79-10.46 0-0.0873 2.045 0.8768 4.545 2.153 30.69 15.67 69.26 29.06 108.2 37.56 61.76 13.49 129.4 17.08 195.7 10.37 62.56-6.33 121-21.69 170.9-44.92 44.86-20.88 80.78-47.6 104.7-77.83 36.74-46.5 41.65-100.4 13.53-148.2-18.21-30.98-48.6-58.27-90.32-81.1-3.995-2.187-7.129-3.976-6.966-3.976 0.5468 0 18.2 8.51 23.72 11.44 26.95 14.28 48.38 29.48 67.08 47.58 23.49 22.74 38.24 46.16 45.46 72.16 6.672 24.05 5.427 50.72-3.474 74.37-11.97 31.82-36.47 61.1-72.3 86.45-58.2 41.17-141.5 68.44-233.9 76.54-25.07 2.199-54.51 2.97-79.99 2.097z"
       style="fill:url(#vlpa)"
       id="path2" />
    <path
       d="m1281 506.9h-149.8v-213.1h56.36v172.5h93.43zm-164.5-106.4c-2e-4 19.85-4.571 37.62-13.71 53.32-9.143 15.7-20.7 27.74-34.66 36.14-11.65 7.157-24.34 11.76-38.05 13.81-13.71 2.052-28.31 3.077-43.78 3.077h-70.22v-213.1h69.62c15.77 2.6e-4 30.54 0.954 44.3 2.863 13.76 1.909 26.67 6.537 38.73 13.88 14.77 8.97 26.42 21.07 34.96 36.29 8.539 15.22 12.81 33.14 12.81 53.75zm-57.87-0.4298c-1e-4 -14.03-2.537-26.03-7.61-36-5.074-9.972-12.88-17.77-23.43-23.4-7.635-4.008-15.65-6.202-24.04-6.584-8.389-0.3811-18.41-0.5729-30.06-0.5729h-1.055v133.4h1.055c12.66 1.4e-4 23.33-0.214 32.02-0.6439 8.69-0.4298 16.95-2.982 24.79-7.658 9.243-5.534 16.28-13.17 21.1-22.9 4.822-9.733 7.233-21.61 7.234-35.64zm-250.1 110.6c-17.18 0-32.27-1.574-45.28-4.723-13.01-3.149-25.09-7.062-36.24-11.74v-50.67h5.124c11.25 9.065 23.66 16.03 37.22 20.9 13.56 4.867 26.72 7.3 39.48 7.3 3.215 0 7.459-0.3338 12.73-1.001 5.274-0.6676 9.519-1.718 12.73-3.149 3.918-1.622 7.233-3.889 9.946-6.799 2.712-2.91 4.069-6.751 4.069-11.52-1.4e-4 -5.344-2.21-9.686-6.631-13.03-4.421-3.34-9.695-5.773-15.82-7.3-7.635-1.908-15.8-3.722-24.49-5.439-8.69-1.718-16.8-3.817-24.34-6.298-17.38-5.821-29.84-13.65-37.37-23.47-7.535-9.829-11.3-22.14-11.3-36.93 0-19.94 8.891-36.09 26.67-48.45 17.78-12.36 39.98-18.54 66.61-18.54 13.36 2.4e-4 26.65 1.288 39.86 3.865 13.21 2.577 25.04 6.06 35.49 10.45v48.67h-4.973c-8.339-6.775-18.51-12.5-30.52-17.18-12.01-4.676-24.34-7.014-37-7.014-4.923 1e-4 -9.343 0.3338-13.26 1.001-3.918 0.6688-8.037 1.956-12.36 3.865-3.516 1.527-6.555 3.793-9.117 6.799-2.562 3.006-3.843 6.37-3.843 10.09-1.4e-4 5.439 2.034 9.757 6.103 12.95 4.069 3.197 11.93 6.083 23.58 8.66 7.535 1.622 14.79 3.197 21.78 4.723 6.982 1.527 14.44 3.626 22.38 6.298 15.57 5.344 27.15 12.52 34.74 21.54 7.585 9.018 11.38 20.92 11.38 35.71-1e-4 21.18-8.766 38.22-26.3 51.1-17.53 12.88-41.22 19.32-71.05 19.32z"
       style="fill:#000000"
       id="path4" />
    <path
       d="m900.6 605.1c-1.389 0-2.513 0.9752-2.513 2.179 0 1.203 1.125 2.179 2.513 2.179 1.387 0 2.513-0.9765 2.513-2.179 0-1.203-1.126-2.179-2.513-2.179zm107.7 19.54c-2.169 0-3.927 1.524-3.927 3.407 0 1.881 1.758 3.405 3.927 3.405s3.927-1.524 3.927-3.405c0-1.883-1.758-3.407-3.927-3.407zm-55.89-7.379c-1.736 0-3.143 1.221-3.143 2.726 0 1.506 1.407 2.725 3.143 2.725 1.736 0 3.141-1.219 3.141-2.725 0-1.505-1.406-2.726-3.141-2.726zm117.1 9.57c-2.712 0-4.909 1.905-4.909 4.257 0 2.352 2.198 4.257 4.909 4.257 2.71 0 4.909-1.905 4.909-4.257 0-2.352-2.199-4.257-4.909-4.257zm63.21-3.286c-3.387 0-6.134 2.382-6.134 5.321 0 2.94 2.747 5.323 6.134 5.323 3.389 0 6.138-2.383 6.138-5.323 0-2.938-2.749-5.321-6.138-5.321zm63.35-10.82c-4.237 0-7.67 2.98-7.67 6.652 0 3.674 3.433 6.653 7.67 6.653 4.237 0 7.672-2.979 7.672-6.653 0-3.673-3.434-6.652-7.672-6.652zm63.39-19.8c-5.295 0-9.587 3.722-9.587 8.314 0 4.592 4.292 8.316 9.587 8.316 5.295 0 9.589-3.724 9.589-8.316 0-4.592-4.294-8.314-9.589-8.314zm60.7-26.35c-5.883 0-10.65 4.137-10.65 9.24 0 5.103 4.769 9.239 10.65 9.239 5.883 0 10.65-4.136 10.65-9.239 0-5.103-4.769-9.24-10.65-9.24zm55.33-37.88c-6.537 0-11.84 4.595-11.84 10.26 0 5.669 5.3 10.27 11.84 10.27 6.539 0 11.84-4.597 11.84-10.27 0-5.669-5.298-10.26-11.84-10.26zm45.63-53.3c-8.499 0-15.39 5.976-15.39 13.35 0 7.37 6.889 13.35 15.39 13.35s15.39-5.975 15.39-13.35c0-7.369-6.889-13.35-15.39-13.35zm19.6-55.29c-6.537 0-11.84 4.595-11.84 10.27 0 5.669 5.298 10.26 11.84 10.26s11.84-4.595 11.84-10.26c0-5.67-5.298-10.27-11.84-10.27zm-6.608-34.51c4.671 0 8.457-3.281 8.457-7.332 0-4.049-3.785-7.332-8.457-7.332-4.668 0-8.453 3.283-8.453 7.332 0 4.051 3.785 7.332 8.453 7.332zm-20.65-39.88c3.337 0 6.038-2.346 6.038-5.238 0-2.892-2.702-5.236-6.038-5.236-3.335 0-6.04 2.344-6.04 5.236 0 2.892 2.705 5.238 6.04 5.238zm-22.7-33.44c-2.223 0-4.024 1.564-4.024 3.493 0 1.927 1.802 3.491 4.024 3.491 2.224 0 4.028-1.564 4.028-3.491 0-1.929-1.803-3.493-4.028-3.493zm-24.16-13.7c1.483 0 2.685-1.042 2.685-2.328 0-1.285-1.202-2.328-2.685-2.328-1.483 0-2.683 1.042-2.683 2.328 0 1.285 1.2 2.328 2.683 2.328"
       style="fill-rule:evenodd;fill:#363636;fill-opacity:1"
       id="path5" />
  </g>
</svg>
